<?xml version="1.0" encoding="UTF-8" standalone="no"?>
<svg
   xmlns:dc="http://purl.org/dc/elements/1.1/"
   xmlns:cc="http://creativecommons.org/ns#"
   xmlns:rdf="http://www.w3.org/1999/02/22-rdf-syntax-ns#"
   xmlns:svg="http://www.w3.org/2000/svg"
   xmlns="http://www.w3.org/2000/svg"
   id="svg8"
   version="1.1"
   viewBox="0 0 262.98191 264.55689"
   height="999.90002"
   width="993.94739">
  <defs
     id="defs2" />
  <metadata
     id="metadata5">
    <rdf:RDF>
      <cc:Work
         rdf:about="">
        <dc:format>image/svg+xml</dc:format>
        <dc:type
           rdf:resource="http://purl.org/dc/dcmitype/StillImage" />
        <dc:title></dc:title>
      </cc:Work>
    </rdf:RDF>
  </metadata>
  <g
     transform="translate(0.2425205,-30.772521)"
     id="layer1">
    <path
       id="path4502"
       d="M 93.960003,291.24363 C 55.867523,278.62643 28.354349,254.64174 10.674361,218.63944 1.3350745,199.62141 -0.2425205,191.58779 -0.2425205,163.04555 c 0,-28.54213 1.577595,-36.57574 10.9168815,-55.59378 13.989179,-28.486607 38.290302,-52.821556 65.622682,-65.714136 30.994797,-14.62015 78.907987,-14.62015 109.902787,0 27.33238,12.89258 51.6335,37.227529 65.62268,65.714136 9.33929,19.01804 10.91688,27.05165 10.91688,55.59378 0,28.54224 -1.57759,36.57586 -10.91688,55.59389 -22.86227,46.55501 -64.15378,74.15263 -114.4717,76.50829 -16.0699,0.75213 -34.27928,-0.88565 -43.390807,-3.9041 z m 88.314707,-69.32149 v -15.7004 H 131.24838 80.222043 v 13.08372 c 0,7.19592 1.17761,14.26111 2.6168,15.7004 1.43918,1.43919 24.401027,2.61668 51.026327,2.61668 h 48.40954 z m -46.42039,-42.8691 c 9.45956,-7.44081 9.65349,-7.44081 14.30039,0 3.18578,5.10106 9.14768,7.54317 18.41543,7.54317 13.37201,0 13.70457,-0.38052 13.70457,-15.70029 0,-8.63522 -1.7663,-15.70051 -3.92502,-15.70051 -2.15883,0 -3.95116,-7.50679 -3.98298,-16.68174 -0.0779,-22.13929 -6.94614,-34.79688 -23.54732,-43.389147 -14.64774,-7.581 -37.40488,-6.955592 -56.052177,1.540767 -8.77563,3.99845 -9.48315,5.70433 -5.75752,13.88137 4.82858,10.59744 6.68278,11.04772 20.176507,4.89956 11.89655,-5.4205 29.91243,-1.48424 29.91243,6.53536 0,4.28606 -2.61255,5.23191 -9.6043,3.47707 -12.96657,-3.25421 -36.128697,4.8683 -43.372467,15.21007 -20.36609,29.07674 20.988057,60.99458 49.732457,38.38432 z m -22.37516,-20.10452 c -3.8764,-6.27199 5.83239,-15.52828 16.28731,-15.52828 6.53958,0 9.33216,2.22337 9.33216,7.43024 0,10.76924 -20.05144,17.10743 -25.61947,8.09804 z"
       style="fill:#18a3dd;stroke-width:3.92510343" />
  </g>
</svg>
